<?xml version="1.0" encoding="UTF-8"?>
<svg width="38px" height="38px" viewBox="0 0 38 38" version="1.1" xmlns="http://www.w3.org/2000/svg" xmlns:xlink="http://www.w3.org/1999/xlink">
    <!-- Generator: Sketch 46.2 (44496) - http://www.bohemiancoding.com/sketch -->
    <title>商家棒</title>
    <desc>Created with Sketch.</desc>
    <defs></defs>
    <g id="Page-1" stroke="none" stroke-width="1" fill="none" fill-rule="evenodd" opacity="0.7">
        <g id="首页" transform="translate(-654.000000, -186.000000)">
            <g id="上" transform="translate(370.000000, 105.000000)">
                <g id="Group-13" transform="translate(40.000000, 76.000000)">
                    <g id="商家棒" transform="translate(244.000000, 5.000000)">
                        <circle id="Oval-3" stroke="#FFFFFF" stroke-width="1.5" cx="19" cy="19" r="18.25"></circle>
                        <g id="店铺" transform="translate(9.000000, 10.000000)">
                            <path d="M18,3.25 L2,3.25 L0,7.61935484 C0,8.98387097 1.12944162,10.1612903 2.5,10.1612903 C3.87055838,10.1612903 5.00317259,9.01290323 5.00317259,7.61935484 C5.00317259,8.98387097 6.12944162,10.1612903 7.5,10.1612903 C8.87055838,10.1612903 10,9.01290323 10,7.61935484 C10,8.98387097 11.1294416,10.1612903 12.5,10.1612903 C13.8705584,10.1612903 15,9.01290323 15,7.61935484 C15,8.98387097 16.1008883,10.1612903 17.5,10.1612903 C18.8705584,10.1612903 20,9.01290323 20,7.61935484 L18,3.25 Z" id="Shape" stroke="#FFFFFF" stroke-width="1.5" fill-rule="nonzero"></path>
                            <rect id="Rectangle" fill="#FFFFFF" x="2" y="0" width="16" height="1.5" rx="0.75"></rect>
                            <path d="M2.75,12.75 L2.75,16.5 C2.75,16.9142136 3.08578644,17.25 3.5,17.25 L16.5,17.25 C16.9142136,17.25 17.25,16.9142136 17.25,16.5 L17.25,12.75 L2.75,12.75 Z" id="Path" stroke="#FFFFFF" stroke-width="1.5"></path>
                        </g>
                    </g>
                </g>
            </g>
        </g>
    </g>
</svg>