<?xml version="1.0" encoding="utf-8"?>
<!-- Generator: Adobe Illustrator 19.0.0, SVG Export Plug-In . SVG Version: 6.00 Build 0)  -->
<svg version="1.1" id="图层_1" xmlns="http://www.w3.org/2000/svg" xmlns:xlink="http://www.w3.org/1999/xlink" x="0px" y="0px"
	 viewBox="-36 -4 46 46" style="enable-background:new -36 -4 46 46;" xml:space="preserve">
<style type="text/css">
	.st0{fill:#FF7979;}
	.st1{fill:none;stroke:#FFFFFF;stroke-width:1.5;}
</style>
<title>首页</title>
<desc>Created with Sketch.</desc>
<g id="Page-1">
	<g id="首页" transform="translate(-1633.000000, -509.000000)">
		<g transform="translate(1633.000000, 509.000000)">
			<path id="Rectangle-24" class="st0" d="M-34-4H8c1.1,0,2,0.9,2,2v42c0,1.1-0.9,2-2,2h-42c-1.1,0-2-0.9-2-2V-2
				C-36-3.1-35.1-4-34-4z"/>
			<g id="Group-3" transform="translate(12.000000, 10.000000)">
				<path id="Path-3" class="st1" d="M-21.8,20.2h6.2c0.4,0,0.8-0.3,0.8-0.8V6.2c0-0.4-0.2-0.7-0.5-1l-9-7.4c-0.5-0.4-1.1-0.4-1.6,0
					l-9,7.4c-0.3,0.2-0.5,0.6-0.5,1v13.3c0,0.4,0.3,0.8,0.8,0.8h6.2V20v-4.4c0-1.8,1.3-3.4,3.3-3.3c2,0,3.2,1.6,3.2,3.3
					c0,1.5,0,1.7,0,4.1V20.2z"/>
			</g>
		</g>
	</g>
</g>
</svg>
