<?xml version="1.0" encoding="UTF-8"?>
<svg width="122px" height="42px" viewBox="0 0 122 42" version="1.1" xmlns="http://www.w3.org/2000/svg" xmlns:xlink="http://www.w3.org/1999/xlink">
    <!-- Generator: Sketch 46.2 (44496) - http://www.bohemiancoding.com/sketch -->
    <title>logo</title>
    <desc>Created with Sketch.</desc>
    <defs>
        <polygon id="path-1" points="5.05139649e-21 14.8154618 4 15.1532479 4 0.0789436364 0 0.0789436364"></polygon>
    </defs>
    <g id="Page-1" stroke="none" stroke-width="1" fill="none" fill-rule="evenodd">
        <g id="首页" transform="translate(-371.000000, -66.000000)">
            <g id="logo" transform="translate(371.000000, 66.000000)">
                <g>
                    <g id="Page-1">
                        <path d="M81,21 L81,17 L68,17 C68,15.55475 66.94525,14.4828214 65.5,14.4828214 L64,14.4828214 L64,17 L55,17 L55,21 L64,21 L58.3999939,41.5199966 C60.4939757,42.0811376 62.6490369,40.7886077 63.2099915,38.6944395 L66.5499878,26.5 L77,26.5 L77,32.514435 L81,31.5 L81,26.2593259 L81,22.5 L77.5106018,22.5 L67.6499939,22.5 L68,21 L81,21 Z" id="Fill-1" fill="#FF502E"></path>
                        <path d="M81,36.5400009 L81,32.39861 L77.39159,33.4724373 C75.1457218,34.0770009 73.2000122,36.3041791 73.2000122,38.6299973 L81,36.5400009 Z" id="Fill-3" fill="#FF502E"></path>
                        <path d="M4,0 L4,3.92556364 C4,6.09371818 2.16815455,7.85112727 0,7.85112727 L0,0 L4,0 Z" id="Fill-8" fill="#FF502E"></path>
                        <path d="M10,9 L10,12 C10,14.1681545 8.16815455,15.5 6,15.5 L6,9 L10,9 Z" id="Fill-10" fill="#FF502E"></path>
                        <path d="M53,2 C53,4.16815455 51.1681545,6 49,6 L48,6 L48,38.1804615 L48,38.7399979 L44,37.6699982 L44,7.48908742 L44,6 L39,6 L39,2 L44,2 L44,2.35922393e-16 L48,2.35922393e-16 L48,2 L53,2 Z" id="Fill-12" fill="#FF502E"></path>
                        <path d="M81,2 C81,4.16815455 79.1681545,5 77,5 L55,5 L55,2 L66,2 L66,5.59090909e-05 L69,5.59090909e-05 C69.7223455,5.59090909e-05 70.2000122,1.27765455 70.2000122,2 L81,2 Z" id="Fill-14" fill="#FF502E"></path>
                        <path d="M81,9 L81,15.5 C79.2910455,15.5 77.53915,14.5244545 77,13 L59,13 C58.46085,14.5244545 56.7089545,15.5 55,15.5 L55,9 L60.5000745,9 C59.0540791,9 58,7.94599545 58,6.5 L62,6.5 L62,9 L74,9 L74,6.5 L78,6.5 C78,7.94599545 76.9458091,9 75.5,9 L81,9 Z" id="Fill-16" fill="#FF502E"></path>
                        <path d="M120,2 C120,2.90819448 120,3.58934034 120,4.04343758 C120,5.14489589 120,6.79708337 120,9 C118.291045,9 116.53915,7.52445455 116,6 L90,6 C89.46085,7.52445455 87.7089545,9 86,9 L86,2 L97.5000745,2 C96.0540791,2 95,1.44599545 95,0 L99,0 L99,2 L107,2 L107,0 L111,0 C111,1.44599545 109.945809,2 108.5,2 L120,2 Z" id="Fill-16" fill="#FF502E"></path>
                        <rect id="Rectangle-6" fill="#FF502E" x="86" y="3.5" width="4" height="16"></rect>
                        <rect id="Rectangle-6" fill="#FF502E" x="86" y="3.5" width="4" height="16.5"></rect>
                        <polygon id="Fill-18" fill="#FF502E" points="43 9 43 37.4100037 39 36.3300018 39 9"></polygon>
                        <path d="M53,40.0800018 L49,39.0100021 L49,9 C51.1681545,9 53,11.0060773 53,13.1742318 L53,40.0800018 Z" id="Fill-20" fill="#FF502E"></path>
                        <path d="M30,6 L30,31.3625773 C28.6445773,31.3625773 27.8554086,32.1148764 27.1507677,33.1600037 L34,34.9899979 L34,2 L10,2 L10,-1.38777878e-15 L6,-1.38777878e-15 L6,7.94020909 C7.45233182,7.94020909 8.57145864,7.17241364 9.25056773,6 L30,6 Z" id="Fill-22" fill="#FF502E"></path>
                        <g id="Group-26" transform="translate(0.000000, 11.786755)">
                            <mask id="mask-2" fill="white">
                                <use xlink:href="#path-1"></use>
                            </mask>
                            <g id="Clip-25"></g>
                            <path d="M4,4.00450727 C4,1.83635273 2.16811727,0.213245455 -3.72727272e-05,0.213245455 L-3.72727272e-05,14.0932427 L4,15.1632424 L4,4.00450727 Z" id="Fill-24" fill="#FF502E" mask="url(#mask-2)"></path>
                        </g>
                        <path d="M6,25 L6,27.4899979 L15.8999939,30.1399994 L24,30 C26.1681545,30 28,28.1683409 28,26 L28,25 L24,25 L24,26 L19,26 L19,22 L24,22 C26.1683409,22 28,20.1681545 28,18 L19,18 L19,14 L24,14 C26.1683409,14 28,12.1681545 28,10 L11,10 L11,14 L15,14 L15,18 L6,18 L6,22 L15,22 L15,26 L10,26 L10,25 L6,25 Z" id="Fill-27" fill="#FF502E"></path>
                    </g>
                    <polygon id="Rectangle-10" fill="#FF502E" points="101 2.5 105 2.5 105 24.6955304 105 30.1100006 101 31.1800003"></polygon>
                    <path d="M89,16.0027684 C109.666617,15.9990772 119.999948,15.9990772 119.999992,16.0027684 C120.024169,18.0013842 118.260415,20.0027684 115.354832,20.0027684 C115.339884,20.0027684 106.55494,20.0027684 89,20.0027684 L89,16.0027684 Z" id="Rectangle-8" fill="#FF502E"></path>
                    <path d="M86,23.0027684 C108.666623,22.9990772 119.999957,22.9990772 120,23.0027684 C120.023421,25.0013842 118.314784,27.0027684 115.5,27.0027684 C115.485519,27.0027684 105.652186,27.0027684 86,27.0027684 L86,23.0027684 Z" id="Rectangle-8" fill="#FF502E"></path>
                    <path d="M89,9.00276845 C105.999948,8.99907718 114.499945,8.99907718 114.49999,9.00276845 C114.524329,11.0013842 112.932078,13.0027684 110.006912,13.0027684 C109.991863,13.0027684 102.989559,13.0027684 89,13.0027684 L89,9.00276845 Z" id="Rectangle-8" fill="#FF502E"></path>
                    <rect id="Rectangle-9" fill="#FF502E" x="116" y="3" width="4" height="13"></rect>
                </g>
            </g>
        </g>
    </g>
</svg>