<?xml version="1.0" encoding="UTF-8"?>
<svg width="46px" height="46px" viewBox="0 0 46 46" version="1.1" xmlns="http://www.w3.org/2000/svg" xmlns:xlink="http://www.w3.org/1999/xlink">
    <!-- Generator: Sketch 46.2 (44496) - http://www.bohemiancoding.com/sketch -->
    <title>获许信息         </title>
    <desc>Created with Sketch.</desc>
    <defs></defs>
    <g id="Page-1" stroke="none" stroke-width="1" fill="none" fill-rule="evenodd">
        <g id="首页" transform="translate(-1633.000000, -608.000000)">
            <g id="获许信息---------" transform="translate(1633.000000, 608.000000)">
                <rect id="Rectangle-24" fill="#FFFFFF" x="0" y="0" width="46" height="46" rx="2"></rect>
                <g id="Group-22" transform="translate(12.000000, 12.000000)">
                    <rect id="Rectangle-28" stroke="#666666" stroke-width="1.5" x="0.75" y="0.75" width="9.5" height="9.5"></rect>
                    <rect id="Rectangle-30" fill="#666666" x="4" y="4" width="3" height="3"></rect>
                    <rect id="Rectangle-28" stroke="#666666" stroke-width="1.5" x="0.75" y="12.75" width="9.5" height="9.5"></rect>
                    <rect id="Rectangle-29" fill="#666666" x="12" y="12" width="2" height="2"></rect>
                    <rect id="Rectangle-29" fill="#666666" x="12" y="13" width="2" height="2"></rect>
                    <rect id="Rectangle-29" fill="#666666" x="12" y="21" width="2" height="2"></rect>
                    <rect id="Rectangle-29" fill="#666666" x="14" y="19" width="2" height="2"></rect>
                    <rect id="Rectangle-29" fill="#666666" x="14" y="17" width="2" height="2"></rect>
                    <rect id="Rectangle-29" fill="#666666" x="14" y="15" width="2" height="2"></rect>
                    <rect id="Rectangle-29" fill="#666666" x="15" y="15" width="2" height="2"></rect>
                    <rect id="Rectangle-29" fill="#666666" x="15" y="17" width="2" height="2"></rect>
                    <rect id="Rectangle-29" fill="#666666" x="15" y="19" width="2" height="2"></rect>
                    <rect id="Rectangle-29" fill="#666666" x="21" y="12" width="2" height="2"></rect>
                    <rect id="Rectangle-29" fill="#666666" x="21" y="21" width="2" height="2"></rect>
                    <rect id="Rectangle-29" fill="#666666" x="21" y="19" width="2" height="2"></rect>
                    <rect id="Rectangle-29" fill="#666666" x="21" y="17" width="2" height="2"></rect>
                    <rect id="Rectangle-29" fill="#666666" x="19" y="21" width="2" height="2"></rect>
                    <rect id="Rectangle-29" fill="#666666" x="17" y="21" width="2" height="2"></rect>
                    <rect id="Rectangle-30" fill="#666666" x="4" y="16" width="3" height="3"></rect>
                    <rect id="Rectangle-28" stroke="#666666" stroke-width="1.5" x="12.75" y="0.75" width="9.5" height="9.5"></rect>
                    <rect id="Rectangle-30" fill="#666666" x="16" y="4" width="3" height="3"></rect>
                </g>
            </g>
        </g>
    </g>
</svg>