<?xml version="1.0" encoding="UTF-8"?>
<svg width="14px" height="14px" viewBox="0 0 14 14" version="1.1" xmlns="http://www.w3.org/2000/svg" xmlns:xlink="http://www.w3.org/1999/xlink">
    <!-- Generator: Sketch 46.2 (44496) - http://www.bohemiancoding.com/sketch -->
    <title>二维码</title>
    <desc>Created with Sketch.</desc>
    <defs></defs>
    <g id="Page-1" stroke="none" stroke-width="1" fill="none" fill-rule="evenodd">
        <g id="图文直播榜" transform="translate(-836.000000, -336.000000)" fill-rule="nonzero" fill="#333333">
            <g id="二维码" transform="translate(836.000000, 336.000000)">
                <path d="M-3.5676323e-14,6.58821654 L6.58823248,6.58821654 L6.58823248,-8.40803122e-14 L-3.5676323e-14,-8.40803122e-14 L-3.5676323e-14,6.58821654 Z M1.64707008,1.64705413 L4.94117835,1.64705413 L4.94117835,4.9411624 L1.64707008,4.9411624 L1.64707008,1.64705413 Z M7.41176752,-8.40803122e-14 L7.41176752,6.58823248 L14,6.58823248 L14,-8.40803122e-14 L7.41176752,-8.40803122e-14 Z M12.3529299,4.9411624 L9.05882165,4.9411624 L9.05882165,1.64705413 L12.3529299,1.64705413 L12.3529299,4.9411624 Z M2.47058917,4.11764331 L4.11764331,4.11764331 L4.11764331,2.47057323 L2.47058917,2.47057323 L2.47058917,4.11764331 Z M-3.5676323e-14,13.9999841 L6.58823248,13.9999841 L6.58823248,7.41175158 L-3.5676323e-14,7.41175158 L-3.5676323e-14,13.9999841 Z M1.64707008,9.05880571 L4.94117835,9.05880571 L4.94117835,12.352914 L1.64707008,12.352914 L1.64707008,9.05880571 Z M11.5294108,2.47057323 L9.88234075,2.47057323 L9.88234075,4.11762736 L11.5293949,4.11762736 L11.5293949,2.47057323 L11.5294108,2.47057323 Z M7.41176752,13.9999841 L9.05882165,13.9999841 L9.05882165,12.3529299 L7.41176752,12.3529299 L7.41176752,13.9999841 Z M9.05882165,9.05880571 L9.05882165,12.352914 L10.7058758,12.352914 L10.7058758,9.05880571 L9.05882165,9.05880571 Z M12.3529299,12.3529299 L10.7058758,12.3529299 L10.7058758,13.9999841 L13.9999841,13.9999841 L13.9999841,10.7058598 L12.3529299,10.7058598 L12.3529299,12.3529299 Z M12.3529299,9.05880571 L13.9999841,9.05880571 L13.9999841,7.41175158 L12.3529299,7.41175158 L12.3529299,9.05880571 Z M7.41176752,7.41175158 L7.41176752,9.05880571 L9.05882165,9.05880571 L9.05882165,7.41175158 L7.41176752,7.41175158 Z M2.47058917,11.5293949 L4.11764331,11.5293949 L4.11764331,9.88234075 L2.47058917,9.88234075 L2.47058917,11.5293949 Z" id="Shape"></path>
            </g>
        </g>
    </g>
</svg>