<?xml version="1.0" encoding="UTF-8"?>
<svg width="26px" height="33px" viewBox="0 0 26 33" version="1.1" xmlns="http://www.w3.org/2000/svg" xmlns:xlink="http://www.w3.org/1999/xlink">
    <!-- Generator: Sketch 46.2 (44496) - http://www.bohemiancoding.com/sketch -->
    <title>排名2</title>
    <desc>Created with Sketch.</desc>
    <defs></defs>
    <g id="Page-1" stroke="none" stroke-width="1" fill="none" fill-rule="evenodd">
        <g id="商家榜" transform="translate(-420.000000, -475.000000)">
            <g id="Group-9" transform="translate(419.000000, 401.000000)">
                <g id="排名2" transform="translate(1.000000, 74.000000)">
                    <g id="奖牌勋章" fill-rule="nonzero">
                        <polygon id="Shape" fill="#57B9F3" points="21.2050584 32.3106796 12.8150541 29.4268773 4.6873828 32.3106796 4.6873828 18.4107523 21.2050584 18.4107523"></polygon>
                        <path d="M4.6873828,24.5216225 C9.45929622,28.5076343 16.3885515,28.5466591 21.2050584,24.6146484 L21.2050584,20.7680282 L4.6873828,20.7680282 L4.6873828,24.5216225 Z" id="Shape" fill="#47A9E3"></path>
                        <path d="M4.49056331e-16,12.9988784 C-0.000376810119,18.2568956 3.16668629,22.997384 8.02435251,25.0098011 C12.8820187,27.0222182 18.4736216,25.9102396 22.1917343,22.1923933 C25.9098471,18.4745469 27.0222264,12.8830238 25.0101574,8.02521332 C22.9980884,3.16740286 18.2578271,1.35018473e-08 12.99981,0 C5.82057698,-1.84352573e-08 0.000514491982,5.81964542 4.49056331e-16,12.9988784 Z" id="Shape" fill="#CDCED2"></path>
                        <path d="M13,24.25 C6.78679658,24.25 1.75000002,19.2132035 1.75,13 C1.74999999,10.0163145 2.93526445,7.15483298 5.04504871,5.04504871 C7.15483298,2.93526445 10.0163145,1.74999999 13,1.75 C19.2132035,1.75000002 24.25,6.78679658 24.25,13 C24.25,19.2132034 19.2132034,24.25 13,24.25 Z" id="Shape" stroke="#ACAFBA" stroke-width="0.5"></path>
                    </g>
                    <text id="2" font-family="MicrosoftYaHei, Microsoft YaHei" font-size="14" font-weight="normal" fill="#FFFFFF">
                        <tspan x="9" y="18">2</tspan>
                    </text>
                </g>
            </g>
        </g>
    </g>
</svg>