<?xml version="1.0" encoding="UTF-8"?>
<svg width="20px" height="20px" viewBox="0 0 20 20" version="1.1" xmlns="http://www.w3.org/2000/svg" xmlns:xlink="http://www.w3.org/1999/xlink">
    <!-- Generator: Sketch 46.2 (44496) - http://www.bohemiancoding.com/sketch -->
    <title>星1</title>
    <desc>Created with Sketch.</desc>
    <defs></defs>
    <g id="Page-1" stroke="none" stroke-width="1" fill="none" fill-rule="evenodd">
        <g id="特色榜-内容榜" transform="translate(-1005.000000, -326.000000)" fill="#FF502E">
            <g id="Group-5" transform="translate(933.000000, 326.000000)">
                <g id="星1" transform="translate(72.000000, 0.000000)">
                    <path d="M10,16 L4.66018912,18.8073047 L4.66018912,18.8073047 C4.51353575,18.884405 4.3321476,18.828021 4.25504736,18.6813676 C4.22434564,18.6229695 4.21375123,18.5560791 4.22490429,18.4910518 L5.24471742,12.545085 L0.924719672,8.33412791 L0.924719672,8.33412791 C0.806074599,8.21847754 0.803646907,8.02854356 0.919297271,7.90989849 C0.965349852,7.8626534 1.02569258,7.83190725 1.09098368,7.82241989 L7.06107374,6.95491503 L9.73097918,1.54509573 L9.73097918,1.54509573 C9.80430586,1.39651963 9.98419362,1.33551793 10.1327697,1.40884462 C10.1919335,1.43804369 10.2398218,1.48593194 10.2690208,1.54509573 L12.9389263,6.95491503 L18.9090163,7.82241989 L18.9090163,7.82241989 C19.0729798,7.84624518 19.1865842,7.99847803 19.1627589,8.16244149 C19.1532716,8.2277326 19.1225254,8.28807532 19.0752803,8.33412791 L14.7552826,12.545085 L15.7750957,18.4910518 L15.7750957,18.4910518 C15.803104,18.6543527 15.6934277,18.8094395 15.5301267,18.8374478 C15.4650994,18.8486008 15.398209,18.8380064 15.3398109,18.8073047 L10,16 Z" id="Star-3"></path>
                </g>
            </g>
        </g>
    </g>
</svg>